<?xml version="1.0" encoding="iso-8859-1"?>
<!-- Generator: Adobe Illustrator 19.0.0, SVG Export Plug-In . SVG Version: 6.00 Build 0)  -->
<svg xmlns="http://www.w3.org/2000/svg" xmlns:xlink="http://www.w3.org/1999/xlink" version="1.1" id="Layer_1" x="0px" y="0px" viewBox="0 0 512 512" style="enable-background:new 0 0 512 512;" xml:space="preserve" width="512px" height="512px">
<g>
	<g>
		<path d="M451.616,165.935c19.927-17.358,32.558-42.887,32.558-71.326C484.174,42.441,441.732,0,389.565,0H372.87v49.641    c-4.068-1.719-8.208-3.094-12.158-4.403c-5.339-1.769-10.384-3.439-14.346-5.621c-3.071-1.691-6.736-4.993-10.616-8.49    c-7.811-7.041-17.534-15.803-30.946-18.904c-3.131-0.724-6.467-1.092-9.916-1.092c-8.123,0-15.657,1.94-22.944,3.818    c-5.862,1.509-11.4,2.936-15.944,2.936c-4.545,0-10.081-1.426-15.943-2.936c-7.286-1.878-14.821-3.818-22.945-3.818    c-3.448,0-6.784,0.367-9.915,1.092c-13.417,3.102-23.138,11.865-30.95,18.906c-3.879,3.498-7.543,6.8-10.614,8.49    c-3.961,2.182-9.006,3.852-14.345,5.621c-3.95,1.309-8.09,2.685-12.157,4.402V0h-16.696C70.268,0,27.826,42.441,27.826,94.609    c0,28.439,12.631,53.968,32.558,71.326c-26.002,14.159-43.688,41.737-43.688,73.37c0,46.03,37.448,83.478,83.478,83.478    c0.467,0,0.927-0.028,1.392-0.034c9.055,52.429,26.66,97.313,51.314,130.543C180.966,491.15,217.589,512,256,512    s75.032-20.85,103.12-58.709c24.653-33.23,42.258-78.115,51.312-130.543c0.465,0.007,0.926,0.034,1.394,0.034    c46.03,0,83.478-37.448,83.478-83.478C495.304,207.672,477.618,180.094,451.616,165.935z M406.261,35.705    c25.667,7.285,44.522,30.933,44.522,58.903s-18.855,51.619-44.522,58.903V35.705z M146.014,84.12    c2.038-2.636,9.334-5.052,15.771-7.184c6.234-2.064,13.3-4.404,19.953-8.067c6.453-3.553,11.746-8.324,16.865-12.938    c5.717-5.153,11.117-10.021,16.117-11.177c0.668-0.155,1.471-0.233,2.391-0.233c3.893,0,9.102,1.341,14.618,2.761    c7.264,1.871,15.497,3.991,24.272,3.991c8.775,0,17.008-2.12,24.272-3.991c5.515-1.42,10.724-2.761,14.615-2.761    c0.919,0,1.724,0.078,2.393,0.233c4.998,1.155,10.397,6.022,16.114,11.174c5.12,4.615,10.414,9.387,16.867,12.939    c6.653,3.663,13.718,6.004,19.952,8.067c6.438,2.133,13.734,4.549,15.772,7.185c3.213,4.154,2.587,12.611,1.923,21.563    c-0.297,4.011-0.604,8.161-0.604,12.375s0.307,8.363,0.604,12.375c0.663,8.951,1.291,17.408-1.923,21.563    c-2.037,2.635-9.333,5.051-15.77,7.182c-6.234,2.064-13.301,4.404-19.954,8.067c-6.455,3.553-11.748,8.326-16.867,12.94    c-5.717,5.152-11.115,10.02-16.114,11.175c-0.668,0.155-1.471,0.233-2.39,0.233h-0.001c-3.892,0-9.102-1.342-14.618-2.761    c-7.264-1.871-15.497-3.991-24.272-3.991c-8.775,0-17.008,2.12-24.272,3.991c-5.515,1.42-10.724,2.761-14.615,2.761    c-0.919,0-1.724-0.078-2.393-0.233c-4.998-1.155-10.397-6.023-16.114-11.175c-5.119-4.614-10.413-9.385-16.865-12.938    c-6.654-3.664-13.72-6.005-19.956-8.068c-6.437-2.131-13.733-4.548-15.771-7.184c-3.213-4.154-2.587-12.611-1.923-21.563    c0.297-4.011,0.605-8.161,0.605-12.375c-0.002-4.214-0.309-8.362-0.608-12.375C143.427,96.731,142.799,88.274,146.014,84.12z     M105.739,35.705v117.807c-25.668-7.285-44.522-30.933-44.522-58.903S80.071,42.99,105.739,35.705z M100.174,189.217    c21.766,0,40.322,13.959,47.215,33.391H52.959C59.851,203.176,78.408,189.217,100.174,189.217z M100.174,289.391    c-21.766,0-40.323-13.959-47.215-33.391h32.539c3.922,3.453,9.05,5.565,14.674,5.565h0.002c5.624,0,10.752-2.113,14.675-5.565    h32.54C140.497,275.433,121.94,289.391,100.174,289.391z M332.302,433.396c-8.775,11.828-20.964,24.952-36.425,34.002    c-10.735-0.539-22.742-4.748-23.159-37.148c8.212-7.4,15.358-18.806,18.899-29.555c2.703-9.071-4.282-16.577-15.583-16.696    c-13.357,0-26.713,0-40.07,0c-11.3,0.119-18.285,7.625-15.583,16.696c3.542,10.747,10.686,22.154,18.898,29.555    c-0.416,32.401-12.424,36.609-23.159,37.148c-15.461-9.05-27.65-22.174-36.425-34.002c-21.799-29.383-37.414-69.941-45.49-117.895    c29.108-13.054,49.446-42.286,49.446-76.197c0-12.232-2.667-23.847-7.414-34.326c0.003,0.004,0.008,0.008,0.011,0.011    c7.811,7.04,17.534,15.803,30.947,18.904c3.131,0.724,6.467,1.091,9.916,1.091c8.123,0,15.657-1.94,22.944-3.818    c5.862-1.509,11.4-2.936,15.944-2.936c4.543,0,10.082,1.426,15.944,2.936c7.286,1.877,14.821,3.818,22.944,3.818    c0.001,0,0.001,0,0.001,0c3.448,0,6.784-0.367,9.915-1.091c13.416-3.102,23.137-11.865,30.947-18.905    c0.003-0.003,0.007-0.006,0.009-0.009c-4.748,10.478-7.414,22.093-7.414,34.325c0,33.911,20.336,63.143,49.444,76.196    C369.716,363.454,354.103,404.013,332.302,433.396z M411.826,289.391c-21.766,0-40.323-13.959-47.215-33.391h32.539    c3.922,3.453,9.05,5.565,14.674,5.565h0.002c5.624,0,10.752-2.113,14.675-5.565h32.54    C452.149,275.433,433.592,289.391,411.826,289.391z M364.611,222.609c6.892-19.433,25.45-33.391,47.215-33.391    c21.766,0,40.323,13.959,47.215,33.391H364.611z" fill="#FFFFFF"/>
	</g>
</g>
<g>
</g>
<g>
</g>
<g>
</g>
<g>
</g>
<g>
</g>
<g>
</g>
<g>
</g>
<g>
</g>
<g>
</g>
<g>
</g>
<g>
</g>
<g>
</g>
<g>
</g>
<g>
</g>
<g>
</g>
</svg>
